<?xml version="1.0" encoding="utf-8"?>
<!-- Generator: Adobe Illustrator 22.0.0, SVG Export Plug-In . SVG Version: 6.00 Build 0)  -->
<svg version="1.1" id="图层_1" xmlns="http://www.w3.org/2000/svg" xmlns:xlink="http://www.w3.org/1999/xlink" x="0px" y="0px"
	 viewBox="0 0 100.5 101.3" style="enable-background:new 0 0 100.5 101.3;" xml:space="preserve">
<style type="text/css">
	.st0{clip-path:url(#SVGID_2_);fill:#FFFFFF;}
	.st1{clip-path:url(#SVGID_2_);fill:#FFFFFF;}
	.st2{clip-path:url(#SVGID_2_);fill:#FFFFFF;}
</style>
<g>
	<defs>
		<rect id="SVGID_1_" x="-97.2" y="-15.2" width="294.9" height="186.7"/>
	</defs>
	<clipPath id="SVGID_2_">
		<use xlink:href="#SVGID_1_"  style="overflow:visible;"/>
	</clipPath>
	<path class="st0" d="M99.9,42.2c0,0,0.3-2.4-6.1-1.9c-3.8-2.8-14.2-6.5-27.6,1.4c-6.6-2.8-11.4-0.6-12.4,0.5
		c5.1,0.6,5.6,3.6,4.7,4.7c-1.7,1.2-15.2,10.9-21.6,4.8c2.6-1.3,2.8-2.3,2.8-2.3s-2,0.2-3.2-0.5c-1.2-0.7-2.3-1.2-3.7-0.7
		c-0.5-2-3.4-3-4.9-3.5c-1.5-0.5-2.9-2.7-3-3.8c0.1,3.3-0.3,7.9,8.6,11.7c4.4,3.9,10.6,8,21.6,6.1c5.3-2.9,7.7-7.1,7.7-7.1
		s-0.9,6-5.6,10c3.3-1.6,9.4-5,15.3-11.7C78.3,43.4,89.2,40.9,99.9,42.2"/>
	<path class="st0" d="M47.6,10.1c17.1,0,31.9,10.5,39.1,25.7c3.2,0.6,5.8,1.7,7.5,2.9c2.7-0.1,4.6,0.2,5.8,1
		C95,17.2,74.9,0.2,50.7,0.2C22.8,0.2,0.2,22.8,0.2,50.7c0,11.3,3.7,21.7,10,30.1c-4-7-6.3-15.3-6.3-24.1
		C3.8,31,23.4,10.1,47.6,10.1"/>
	<path class="st1" d="M16,51.7c0-19.5,15-35.4,34.1-36.9c-0.9-0.1-1.9-0.1-2.8-0.1c-20.4,0-37,16.6-37,37s16.6,37,37,37
		c1,0,1.9,0,2.8-0.1C31,87.1,16,71.2,16,51.7"/>
	<path class="st1" d="M85.5,69c0,0-8.2,16-31.8,19c6.6-4.3,6.2-5,15.9-8.4C79.6,76.1,85.5,69,85.5,69"/>
	<path class="st1" d="M45.3,85.9c0,0-9,0.5-14.2-6.9c-1.1-1.8-0.1-2.8,0.5-3.1c0.5-0.3,2-0.8,3,1.3C35.4,79.2,37.1,83.7,45.3,85.9"
		/>
	<path class="st1" d="M36.3,76.5c0,0-1.7-6.1,2-10.2c0.7-0.7,1.2-0.3,1.4,0c0.2,0.3,0.5,0.8-0.2,1.4C38.9,68.2,35.7,71.6,36.3,76.5"
		/>
	<path class="st1" d="M49.2,83.3c0,0-1.9-0.5-3.6-3.3c-0.3-0.5-1.2-0.5-1.5,0.1c-0.4,0.6-0.1,1.1,0.3,1.5
		C44.8,82,46.9,83.3,49.2,83.3"/>
	<path class="st1" d="M46.3,86.8c0,0,5.5,1,10.3-1.4C53.6,87.5,51,88.5,46.3,86.8"/>
	<path class="st1" d="M62.4,80.9c0,0,10-8.6,20.7-11.3C78.7,75,68.3,78.9,62.4,80.9"/>
	<path class="st1" d="M46.1,67.1C41,66,36.6,71,37.1,75.4c1.6,9.9,11.1,8.5,11.8,8.4c-0.6,0-1.7,0-2.4-0.1
		c-1.1-0.2-9.6-3.1-6.6-10.5c1.6-3.5,6.5-4.7,9.1-1.1c0.5,0.9,0.5,2.3,0.1,3.2c0,0,0,0,0,0c-0.6,1.9-2.9,2.7-5.3,2.2
		c2.4,2,7,0.3,7.8-2.8C52.5,71.7,51.1,68.3,46.1,67.1"/>
	<path class="st1" d="M59,83.1c-0.5,0.2-4.7,1.5-5.6-2.3c-0.4-1.9,1.2-3.7,3.3-3.1c0.5,0.2,0.8,0.8,1,1.2c0,0,0-0.1-0.1-0.1
		c0.4,1-0.3,2-1.4,2.5c1.5,0.1,2.9-1.9,2.3-3.4c-0.5-1.4-2.1-2.4-4.4-1.4s-2.6,4.3-1.2,5.9c3.5,3.5,7,0.1,7.1-0.1
		C59.7,82.6,59.3,82.9,59,83.1"/>
	<path class="st2" d="M43.6,59.3c0,0,7.8,2.3,14.9-1.2c-1.7,2.7-2.4,3.2-2.4,3.2S47.6,61.5,43.6,59.3"/>
	<path class="st2" d="M63.1,60.2c0,0,4.2-2.7,7.6-6.4c4.1-1.9,11.6-5.4,15.4-8c3.8-2.6,10.9-3.2,13.3-2.8c2.4,0.3-0.3,1.9-2.5,2.3
		c-2.3,0.3-12.8,5.1-14.7,7.4c-1,3.1-4.5,8.7-9.8,10.3c1.6-2.5,2.3-6.5,2.3-6.5S66.7,60.1,63.1,60.2"/>
	<path class="st2" d="M90.1,68.1c-7.1,15-22.6,25.4-40.6,25.4C25,93.5,5.1,74.1,5,50.2c0,0.2,0,0.4,0,0.5
		c0,27.9,21.5,50.5,48.1,50.5c21.5,0,39.7-14.9,45.9-35.3C95.6,66.3,92.6,67.2,90.1,68.1"/>
	<path class="st2" d="M42.7,80.7c-2.4-3.1-1.5-5.9-0.1-7.6c1.4-1.7,6.3-2.2,6.6,0.8c0.1,0.5,0,1-0.1,1.5c0.4-0.9,0.4-2.3-0.1-3.2
		c-2.6-3.6-7.4-2.4-9.1,1.1c-3,7.3,5.5,10.2,6.6,10.5c0.8,0.2,1.9,0.2,2.4,0.1c0,0,0,0,0,0S45.2,83.8,42.7,80.7"/>
	<path class="st2" d="M47.7,76.5c0,0-1.8,0.4-3.2-1.8c-0.5-0.8-1.5-0.4-1.7,0.1c-0.2,0.4-0.8,1.8,2.2,2.3
		C46.4,77.2,47.7,76.5,47.7,76.5"/>
	<path class="st2" d="M56.6,83c-1.9-0.5-2.3-1.9-2.2-3c0.1-1.1,1.9-2.7,2.9-1.6c0.2,0.2,0.3,0.4,0.4,0.6c-0.1-0.5-0.5-1-1-1.2
		c-2.1-0.7-3.7,1.2-3.3,3.1c0.9,3.8,5.1,2.5,5.6,2.3c0.4-0.2,0.8-0.5,1-0.7c0,0,0,0,0,0S58.4,83.5,56.6,83"/>
	<path class="st2" d="M57.3,79.8c0,0-0.6,0.7-1.8,0.2c-0.4-0.2-0.7,0.3-0.7,0.5c0,0.2,0.2,1,1.5,0.3C57,80.5,57.3,79.8,57.3,79.8"/>
</g>
</svg>
