<?xml version="1.0" standalone="no"?><!DOCTYPE svg PUBLIC "-//W3C//DTD SVG 1.1//EN" "http://www.w3.org/Graphics/SVG/1.1/DTD/svg11.dtd"><svg t="1679971212735" class="icon" viewBox="0 0 1024 1024" version="1.1" xmlns="http://www.w3.org/2000/svg" p-id="3625" xmlns:xlink="http://www.w3.org/1999/xlink" width="200" height="200"><path d="M512.1 513.2l320.1 415H192z" p-id="3626"></path><path d="M890.4 97.2H133.1c-37 0-67.1 30.1-67.1 67.1V652c0 37 30.1 67.1 67.1 67.1h158.8l49.4-64H133.1c-1.7 0-3.1-1.4-3.1-3.1V164.3c0-1.7 1.4-3.1 3.1-3.1h757.3c1.7 0 3.1 1.4 3.1 3.1V652c0 1.7-1.4 3.1-3.1 3.1H684.7l49.4 64h156.3c37 0 67.1-30.1 67.1-67.1V164.3c0-37-30.1-67.1-67.1-67.1z m-28.1 97.4h-702v427.2H367l146-189.3 146 189.3h203.3V194.6z" p-id="3627"></path></svg>