<?xml version="1.0" standalone="no"?><!DOCTYPE svg PUBLIC "-//W3C//DTD SVG 1.1//EN" "http://www.w3.org/Graphics/SVG/1.1/DTD/svg11.dtd"><svg t="1683178593527" class="icon" viewBox="0 0 1024 1024" version="1.1" xmlns="http://www.w3.org/2000/svg" p-id="8022" xmlns:xlink="http://www.w3.org/1999/xlink" width="200" height="200"><path d="M130.17331 0h761.114013a150.068436 150.068436 0 0 1 47.019259 10.00388 136.654841 136.654841 0 0 1 68.440053 61.927804 142.522009 142.522009 0 0 1 16.792593 56.982181c0.583645 6.983261 0.348139 13.976761 0.348139 20.847389v551.421635a142.32746 142.32746 0 0 1-42.042918 102.16859 132.49765 132.49765 0 0 1-90.915505 38.428414H538.868148v125.944444h312.116953a27.021739 27.021739 0 0 1 24.205908 13.372637 29.438234 29.438234 0 0 1-1.965963 32.653401 26.438094 26.438094 0 0 1-19.106693 10.239386H170.936304a26.6736 26.6736 0 0 1-23.048857-14.580886 29.131052 29.131052 0 0 1 8.682999-36.749155 34.619363 34.619363 0 0 1 22.352579-4.935383h306.085954v-125.944444h-343.019418a145.399276 145.399276 0 0 1-33.124413-2.652001A134.197388 134.197388 0 0 1 26.520009 785.156091 144.180789 144.180789 0 0 1 0 707.807772v-572.996021A143.033978 143.033978 0 0 1 38.684399 42.288663 131.99592 131.99592 0 0 1 122.073956 1.085375 68.091914 68.091914 0 0 0 130.183549 0M379.062056 205.289443a27.185569 27.185569 0 0 0-22.239945 19.393396q-39.933604 131.197248-79.795533 262.404736a29.387037 29.387037 0 0 0 7.874088 33.011779L497.296242 685.014899a26.274264 26.274264 0 0 0 31.84449-0.245745l211.238525-164.086155a28.987701 28.987701 0 0 0 9.491911-30.84103q-40.476291-132.82531-80.83995-265.773493a27.226526 27.226526 0 0 0-19.229566-18.308022 34.67056 34.67056 0 0 0-9.962922-0.604123c-86.973342 0.122873-173.83405-0.122873-260.807392 0.122872z" fill="" p-id="8023"></path><path d="M402.438574 261.431994h221.314081q34.394096 113.124733 68.788193 226.372338-89.635582 69.760934-179.394037 139.388756-89.809651-69.576625-179.506669-139.255644 34.220027-113.309041 68.788192-226.495211m53.736296 88.427335a27.267484 27.267484 0 0 0-23.274123 21.32864 28.752195 28.752195 0 0 0 9.727416 28.793153 27.267484 27.267484 0 0 0 18.297782 5.908125h105.045857a27.031978 27.031978 0 0 0 19.690339-7.83313 29.223207 29.223207 0 0 0 6.020759-31.926404 26.550727 26.550727 0 0 0-24.66668-16.50589c-37.056337 0.225266-73.887407 0.112633-110.83111 0.225266z" fill="" p-id="8024"></path></svg>
