<?xml version="1.0" standalone="no"?><!DOCTYPE svg PUBLIC "-//W3C//DTD SVG 1.1//EN" "http://www.w3.org/Graphics/SVG/1.1/DTD/svg11.dtd"><svg t="1680053582094" class="icon" viewBox="0 0 1024 1024" version="1.1" xmlns="http://www.w3.org/2000/svg" p-id="5459" xmlns:xlink="http://www.w3.org/1999/xlink" width="200" height="200"><path d="M123.5 181.8h227.2c8.6 0 16.8 3.5 22.7 9.6l77.8 80.7c5.7 5.9 8.8 13.7 8.8 21.9v84.3c0 20.7-16.9 37.6-37.6 37.6H123.5c-20.7 0-37.6-16.9-37.6-37.6V219.4c0-20.7 16.9-37.6 37.6-37.6z" p-id="5460"></path><path d="M853.1 278.3H172.5c-47.6 0-86.6 39-86.6 86.6v441.6c0 47.6 39 86.6 86.6 86.6h680.6c47.6 0 86.6-39 86.6-86.6V364.8c0-47.6-39-86.5-86.6-86.5zM458.7 486.6c0-8.6 7-15.6 15.6-15.6h366.6c8.6 0 15.6 7 15.6 15.6v38.8c0 8.6-7 15.6-15.6 15.6H474.2c-8.6 0-15.6-7-15.6-15.6v-38.8z m397.9 172.8c0 8.6-7 15.6-15.6 15.6H474.4c-8.6 0-15.6-7-15.6-15.6v-38.8c0-8.6 7-15.6 15.6-15.6H841c8.6 0 15.6 7 15.6 15.6v38.8z" p-id="5461"></path></svg>