<?xml version="1.0" standalone="no"?><!DOCTYPE svg PUBLIC "-//W3C//DTD SVG 1.1//EN" "http://www.w3.org/Graphics/SVG/1.1/DTD/svg11.dtd"><svg t="1683178465640" class="icon" viewBox="0 0 1024 1024" version="1.1" xmlns="http://www.w3.org/2000/svg" p-id="3618" xmlns:xlink="http://www.w3.org/1999/xlink" width="200" height="200"><path d="M824 0H200C89.54 0 0 89.54 0 200v624c0 110.46 89.54 200 200 200h624c110.46 0 200-89.54 200-200V200C1024 89.54 934.46 0 824 0zM679.28 346.41A286 286 0 0 1 792.2 522.35a176.7 176.7 0 0 0-92.87-7.57 197 197 0 0 0-47.57-76.51 201 201 0 0 0-20.07-17.57q2.41-2.24 4.76-4.58a175.43 175.43 0 0 0 37.71-56q2.84-6.75 5.12-13.71zM418.67 198.19a132.11 132.11 0 1 1-28.61 144 131.92 131.92 0 0 1 28.61-144zM344.72 346.4q2.27 7 5.14 13.76a175.53 175.53 0 0 0 37.7 56c1.55 1.56 3.15 3.08 4.76 4.58a200.79 200.79 0 0 0-20.08 17.57 197 197 0 0 0-47.57 76.51 176.79 176.79 0 0 0-92.87 7.55A286 286 0 0 1 344.72 346.4zM292 820a132.09 132.09 0 1 1 93.33-38.69A132 132 0 0 1 292 820z m95.85 15.66a176.72 176.72 0 0 0 62-69.66 199.46 199.46 0 0 0 124.43 0 176.33 176.33 0 0 0 62 69.66 286.08 286.08 0 0 1-248.42-0.02z m437.47-54.35a132.07 132.07 0 1 1 16.42-166.8 131.09 131.09 0 0 1-16.41 166.78z" p-id="3619"></path></svg>